<svg xmlns="http://www.w3.org/2000/svg" xmlns:xlink="http://www.w3.org/1999/xlink" width="500" zoomAndPan="magnify" viewBox="0 0 375 127.500001" height="170" preserveAspectRatio="xMidYMid meet" version="1.0"><defs><g/></defs><g fill="#f4f6ff" fill-opacity="1"><g transform="translate(0.73242, 92.263185)"><g><path d="M 28.125 12.75 C 26.425781 12.75 25.203125 12.640625 24.453125 12.421875 C 23.710938 12.210938 23.132812 11.738281 22.71875 11 C 22.445312 10.570312 22.285156 10.101562 22.234375 9.59375 C 22.179688 9.09375 22.15625 8.070312 22.15625 6.53125 L 22.15625 0 L 16.5 0 C 13.625 0 11.242188 -0.332031 9.359375 -1 C 7.472656 -1.664062 6 -2.847656 4.9375 -4.546875 C 3.875 -6.242188 3.128906 -8.578125 2.703125 -11.546875 C 2.285156 -14.523438 2.078125 -18.300781 2.078125 -22.875 L 2.078125 -32.4375 C 2.078125 -36.3125 2.3125 -39.578125 2.78125 -42.234375 C 3.257812 -44.890625 4.054688 -47.023438 5.171875 -48.640625 C 6.296875 -50.265625 7.785156 -51.421875 9.640625 -52.109375 C 11.503906 -52.804688 13.789062 -53.15625 16.5 -53.15625 L 22.546875 -53.15625 C 25.734375 -53.15625 28.296875 -52.6875 30.234375 -51.75 C 32.179688 -50.820312 33.601562 -49.347656 34.5 -47.328125 C 34.925781 -46.429688 35.269531 -45.515625 35.53125 -44.578125 C 35.800781 -43.648438 36.015625 -42.585938 36.171875 -41.390625 C 36.335938 -40.203125 36.457031 -38.820312 36.53125 -37.25 C 36.613281 -35.6875 36.65625 -33.789062 36.65625 -31.5625 L 36.65625 -18.96875 C 36.65625 -14.03125 36.160156 -10.140625 35.171875 -7.296875 C 34.191406 -4.453125 32.664062 -2.421875 30.59375 -1.203125 L 30.59375 1.828125 C 30.59375 3.367188 31.363281 4.140625 32.90625 4.140625 L 36.65625 4.140625 L 36.65625 12.75 Z M 22.390625 -37.9375 C 22.390625 -40.75 21.40625 -42.15625 19.4375 -42.15625 C 18.488281 -42.15625 17.734375 -41.769531 17.171875 -41 C 16.617188 -40.226562 16.34375 -39.207031 16.34375 -37.9375 L 16.34375 -15.0625 C 16.34375 -13.726562 16.617188 -12.691406 17.171875 -11.953125 C 17.734375 -11.210938 18.488281 -10.84375 19.4375 -10.84375 C 21.40625 -10.84375 22.390625 -12.25 22.390625 -15.0625 Z M 22.390625 -37.9375 "/></g></g></g><g fill="#f4f6ff" fill-opacity="1"><g transform="translate(39.377109, 92.263185)"><g><path d="M 15.625 0 C 13.976562 0 12.59375 -0.0351562 11.46875 -0.109375 C 10.351562 -0.191406 9.394531 -0.335938 8.59375 -0.546875 C 7.800781 -0.765625 7.113281 -1.0625 6.53125 -1.4375 C 5.945312 -1.8125 5.390625 -2.289062 4.859375 -2.875 C 4.378906 -3.351562 3.96875 -3.867188 3.625 -4.421875 C 3.28125 -4.984375 3.015625 -5.617188 2.828125 -6.328125 C 2.640625 -7.046875 2.503906 -7.894531 2.421875 -8.875 C 2.347656 -9.863281 2.3125 -11.078125 2.3125 -12.515625 L 2.3125 -40.796875 L 14.984375 -40.796875 L 14.984375 -13.859375 C 14.984375 -10.941406 15.9375 -9.484375 17.84375 -9.484375 C 18.96875 -9.484375 19.765625 -9.828125 20.234375 -10.515625 C 20.710938 -11.210938 20.953125 -12.328125 20.953125 -13.859375 L 20.953125 -40.796875 L 33.625 -40.796875 L 33.625 -12.515625 C 33.625 -11.128906 33.582031 -9.929688 33.5 -8.921875 C 33.425781 -7.910156 33.296875 -7.046875 33.109375 -6.328125 C 32.921875 -5.617188 32.65625 -4.984375 32.3125 -4.421875 C 31.96875 -3.867188 31.554688 -3.351562 31.078125 -2.875 C 30.492188 -2.289062 29.921875 -1.8125 29.359375 -1.4375 C 28.804688 -1.0625 28.128906 -0.765625 27.328125 -0.546875 C 26.535156 -0.335938 25.582031 -0.191406 24.46875 -0.109375 C 23.351562 -0.0351562 21.972656 0 20.328125 0 Z M 15.625 0 "/></g></g></g><g fill="#f4f6ff" fill-opacity="1"><g transform="translate(75.312677, 92.263185)"><g><path d="M 10.84375 0.15625 C 8.550781 0.15625 6.914062 0.0078125 5.9375 -0.28125 C 4.957031 -0.570312 4.175781 -1.144531 3.59375 -2 C 3.113281 -2.738281 2.738281 -3.851562 2.46875 -5.34375 C 2.207031 -6.832031 2.078125 -8.53125 2.078125 -10.4375 L 2.078125 -32.1875 C 2.078125 -34.15625 2.195312 -35.644531 2.4375 -36.65625 C 2.675781 -37.664062 3.113281 -38.488281 3.75 -39.125 C 5.019531 -40.40625 6.828125 -41.046875 9.171875 -41.046875 L 11.875 -41.046875 C 12.882812 -41.046875 13.75 -40.988281 14.46875 -40.875 C 15.1875 -40.769531 15.820312 -40.597656 16.375 -40.359375 C 16.9375 -40.117188 17.453125 -39.785156 17.921875 -39.359375 C 18.398438 -38.941406 18.90625 -38.382812 19.4375 -37.6875 L 20.40625 -36.5 L 20.40625 -40.796875 L 33.078125 -40.796875 L 33.078125 0 L 20.40625 0 L 20.40625 -4.46875 C 19.875 -3.457031 19.394531 -2.644531 18.96875 -2.03125 C 18.539062 -1.414062 18.070312 -0.945312 17.5625 -0.625 C 17.0625 -0.3125 16.492188 -0.101562 15.859375 0 C 15.222656 0.101562 14.398438 0.15625 13.390625 0.15625 Z M 20.40625 -26.9375 C 20.40625 -30.019531 19.445312 -31.5625 17.53125 -31.5625 C 15.675781 -31.5625 14.75 -30.019531 14.75 -26.9375 L 14.75 -14.34375 C 14.75 -11.257812 15.703125 -9.71875 17.609375 -9.71875 C 19.472656 -9.71875 20.40625 -11.257812 20.40625 -14.34375 Z M 20.40625 -26.9375 "/></g></g></g><g fill="#f4f6ff" fill-opacity="1"><g transform="translate(110.690495, 92.263185)"><g><path d="M 2.3125 -40.796875 L 14.984375 -40.796875 L 14.984375 -36.421875 C 15.515625 -37.316406 16.054688 -38.054688 16.609375 -38.640625 C 17.171875 -39.234375 17.796875 -39.703125 18.484375 -40.046875 C 19.179688 -40.390625 19.976562 -40.625 20.875 -40.75 C 21.78125 -40.882812 22.84375 -40.953125 24.0625 -40.953125 C 26.613281 -40.953125 28.550781 -40.703125 29.875 -40.203125 C 31.207031 -39.703125 32.164062 -38.835938 32.75 -37.609375 C 32.90625 -37.242188 33.035156 -36.910156 33.140625 -36.609375 C 33.253906 -36.316406 33.335938 -35.835938 33.390625 -35.171875 C 33.441406 -34.515625 33.476562 -33.5625 33.5 -32.3125 C 33.53125 -31.0625 33.546875 -29.296875 33.546875 -27.015625 L 33.546875 0 L 20.875 0 L 20.875 -26.9375 C 20.875 -30.019531 19.863281 -31.5625 17.84375 -31.5625 C 15.9375 -31.5625 14.984375 -29.96875 14.984375 -26.78125 L 14.984375 0 L 2.3125 0 Z M 2.3125 -40.796875 "/></g></g></g><g fill="#f4f6ff" fill-opacity="1"><g transform="translate(146.546392, 92.263185)"><g><path d="M 11.71875 0 C 10.070312 0 8.6875 -0.15625 7.5625 -0.46875 C 6.445312 -0.789062 5.554688 -1.320312 4.890625 -2.0625 C 4.234375 -2.8125 3.757812 -3.796875 3.46875 -5.015625 C 3.175781 -6.242188 3.03125 -7.785156 3.03125 -9.640625 L 3.03125 -29.640625 L -0.40625 -29.640625 L -0.40625 -39.28125 L 3.03125 -39.28125 L 3.03125 -48.921875 L 15.703125 -48.921875 L 15.703125 -39.28125 L 21.75 -39.28125 L 21.75 -29.640625 L 15.703125 -29.640625 L 15.703125 -12.515625 C 15.703125 -11.453125 15.898438 -10.707031 16.296875 -10.28125 C 16.691406 -9.851562 17.394531 -9.640625 18.40625 -9.640625 L 21.75 -9.640625 L 21.75 0 Z M 11.71875 0 "/></g></g></g><g fill="#f4f6ff" fill-opacity="1"><g transform="translate(169.01609, 92.263185)"><g><path d="M 15.625 0 C 13.976562 0 12.59375 -0.0351562 11.46875 -0.109375 C 10.351562 -0.191406 9.394531 -0.335938 8.59375 -0.546875 C 7.800781 -0.765625 7.113281 -1.0625 6.53125 -1.4375 C 5.945312 -1.8125 5.390625 -2.289062 4.859375 -2.875 C 4.378906 -3.351562 3.96875 -3.867188 3.625 -4.421875 C 3.28125 -4.984375 3.015625 -5.617188 2.828125 -6.328125 C 2.640625 -7.046875 2.503906 -7.894531 2.421875 -8.875 C 2.347656 -9.863281 2.3125 -11.078125 2.3125 -12.515625 L 2.3125 -40.796875 L 14.984375 -40.796875 L 14.984375 -13.859375 C 14.984375 -10.941406 15.9375 -9.484375 17.84375 -9.484375 C 18.96875 -9.484375 19.765625 -9.828125 20.234375 -10.515625 C 20.710938 -11.210938 20.953125 -12.328125 20.953125 -13.859375 L 20.953125 -40.796875 L 33.625 -40.796875 L 33.625 -12.515625 C 33.625 -11.128906 33.582031 -9.929688 33.5 -8.921875 C 33.425781 -7.910156 33.296875 -7.046875 33.109375 -6.328125 C 32.921875 -5.617188 32.65625 -4.984375 32.3125 -4.421875 C 31.96875 -3.867188 31.554688 -3.351562 31.078125 -2.875 C 30.492188 -2.289062 29.921875 -1.8125 29.359375 -1.4375 C 28.804688 -1.0625 28.128906 -0.765625 27.328125 -0.546875 C 26.535156 -0.335938 25.582031 -0.191406 24.46875 -0.109375 C 23.351562 -0.0351562 21.972656 0 20.328125 0 Z M 15.625 0 "/></g></g></g><g fill="#f4f6ff" fill-opacity="1"><g transform="translate(204.951657, 92.263185)"><g><path d="M 2.3125 -40.796875 L 14.984375 -40.796875 L 14.984375 -36.421875 C 16.046875 -38.222656 17.210938 -39.425781 18.484375 -40.03125 C 19.765625 -40.644531 21.648438 -40.953125 24.140625 -40.953125 C 25.628906 -40.953125 26.914062 -40.875 28 -40.71875 C 29.09375 -40.5625 30 -40.28125 30.71875 -39.875 C 31.4375 -39.476562 32.019531 -38.960938 32.46875 -38.328125 C 32.925781 -37.691406 33.285156 -36.894531 33.546875 -35.9375 C 34.179688 -37 34.765625 -37.863281 35.296875 -38.53125 C 35.828125 -39.195312 36.410156 -39.703125 37.046875 -40.046875 C 37.691406 -40.390625 38.425781 -40.625 39.25 -40.75 C 40.070312 -40.882812 41.09375 -40.953125 42.3125 -40.953125 C 44.28125 -40.953125 45.890625 -40.832031 47.140625 -40.59375 C 48.390625 -40.363281 49.367188 -39.925781 50.078125 -39.28125 C 50.796875 -38.644531 51.300781 -37.769531 51.59375 -36.65625 C 51.882812 -35.539062 52.03125 -34.109375 52.03125 -32.359375 L 52.03125 0 L 39.359375 0 L 39.359375 -27.171875 C 39.359375 -30.097656 38.351562 -31.5625 36.34375 -31.5625 C 34.476562 -31.5625 33.546875 -30.046875 33.546875 -27.015625 L 33.546875 0 L 20.875 0 L 20.875 -26.9375 C 20.875 -30.019531 19.863281 -31.5625 17.84375 -31.5625 C 15.9375 -31.5625 14.984375 -29.96875 14.984375 -26.78125 L 14.984375 0 L 2.3125 0 Z M 2.3125 -40.796875 "/></g></g></g><g fill="#fd1d75" fill-opacity="1"><g transform="translate(276.480732, 89.274905)"><g><path d="M 2.390625 -49.828125 L 22.78125 -49.828125 C 24.476562 -49.828125 25.820312 -49.8125 26.8125 -49.78125 C 27.8125 -49.757812 28.609375 -49.710938 29.203125 -49.640625 C 29.804688 -49.566406 30.28125 -49.453125 30.625 -49.296875 C 30.976562 -49.148438 31.351562 -48.953125 31.75 -48.703125 C 33.738281 -47.410156 34.734375 -44.570312 34.734375 -40.1875 L 34.734375 -36.984375 C 34.734375 -35.734375 34.71875 -34.6875 34.6875 -33.84375 C 34.664062 -33 34.601562 -32.273438 34.5 -31.671875 C 34.40625 -31.078125 34.269531 -30.554688 34.09375 -30.109375 C 33.925781 -29.660156 33.691406 -29.210938 33.390625 -28.765625 C 32.796875 -27.765625 32.0625 -27.023438 31.1875 -26.546875 C 30.3125 -26.078125 29.054688 -25.742188 27.421875 -25.546875 C 28.910156 -25.097656 30.128906 -24.632812 31.078125 -24.15625 C 32.023438 -23.6875 32.769531 -23.09375 33.3125 -22.375 C 33.863281 -21.65625 34.238281 -20.796875 34.4375 -19.796875 C 34.632812 -18.796875 34.734375 -17.550781 34.734375 -16.0625 L 34.734375 -8.359375 C 34.734375 -5.328125 35.082031 -2.539062 35.78125 0 L 22.40625 0 C 22.007812 -1.289062 21.734375 -2.535156 21.578125 -3.734375 C 21.429688 -4.929688 21.359375 -6.472656 21.359375 -8.359375 L 21.359375 -15.015625 C 21.359375 -16.609375 21.0625 -17.753906 20.46875 -18.453125 C 19.875 -19.148438 18.878906 -19.5 17.484375 -19.5 L 15.765625 -19.5 L 15.765625 0 L 2.390625 0 Z M 17.625 -30.328125 C 19.175781 -30.328125 20.195312 -30.597656 20.6875 -31.140625 C 21.1875 -31.691406 21.4375 -32.84375 21.4375 -34.59375 C 21.4375 -36.226562 21.160156 -37.367188 20.609375 -38.015625 C 20.066406 -38.671875 19.070312 -39 17.625 -39 L 15.765625 -39 L 15.765625 -30.328125 Z M 17.625 -30.328125 "/></g></g></g><g fill="#fd1d75" fill-opacity="1"><g transform="translate(313.604332, 89.274905)"><g><path d="M 2.171875 -38.25 L 14.046875 -38.25 L 14.046875 0 L 2.171875 0 Z M 2.171875 -49.828125 L 14.046875 -49.828125 L 14.046875 -41.6875 L 2.171875 -41.6875 Z M 2.171875 -49.828125 "/></g></g></g><g fill="#fd1d75" fill-opacity="1"><g transform="translate(329.813224, 89.274905)"><g><path d="M 10.3125 12.625 C 8.613281 12.625 7.226562 12.535156 6.15625 12.359375 C 5.09375 12.191406 4.25 11.878906 3.625 11.421875 C 3 10.972656 2.570312 10.347656 2.34375 9.546875 C 2.125 8.753906 2.015625 7.738281 2.015625 6.5 L 2.015625 2.984375 L 11.953125 2.984375 C 12.003906 4.234375 12.289062 5.101562 12.8125 5.59375 C 13.332031 6.09375 14.238281 6.34375 15.53125 6.34375 C 16.976562 6.34375 18 6.09375 18.59375 5.59375 C 19.195312 5.101562 19.5 4.234375 19.5 2.984375 L 19.5 0 L 11.953125 0 C 10.660156 0 9.613281 -0.0078125 8.8125 -0.03125 C 8.019531 -0.0625 7.359375 -0.113281 6.828125 -0.1875 C 6.304688 -0.257812 5.859375 -0.359375 5.484375 -0.484375 C 5.117188 -0.609375 4.757812 -0.769531 4.40625 -0.96875 C 3.5625 -1.519531 2.9375 -2.34375 2.53125 -3.4375 C 2.132812 -4.53125 1.9375 -6.050781 1.9375 -8 C 1.9375 -8.09375 1.9375 -8.25 1.9375 -8.46875 C 1.9375 -8.695312 1.960938 -8.9375 2.015625 -9.1875 L 2.015625 -27.5625 C 2.015625 -29.207031 2.023438 -30.515625 2.046875 -31.484375 C 2.078125 -32.453125 2.15625 -33.234375 2.28125 -33.828125 C 2.40625 -34.429688 2.566406 -34.90625 2.765625 -35.25 C 2.960938 -35.601562 3.257812 -35.957031 3.65625 -36.3125 C 4.40625 -37.007812 5.5 -37.503906 6.9375 -37.796875 C 8.382812 -38.097656 10.554688 -38.25 13.453125 -38.25 L 20.46875 -38.25 C 23.007812 -38.25 25 -38.160156 26.4375 -37.984375 C 27.882812 -37.804688 28.96875 -37.359375 29.6875 -36.640625 C 30.414062 -35.921875 30.878906 -34.847656 31.078125 -33.421875 C 31.273438 -32.003906 31.375 -30.050781 31.375 -27.5625 L 31.375 2.984375 C 31.375 4.285156 31.347656 5.34375 31.296875 6.15625 C 31.242188 6.976562 31.164062 7.675781 31.0625 8.25 C 30.96875 8.820312 30.804688 9.296875 30.578125 9.671875 C 30.359375 10.046875 30.101562 10.40625 29.8125 10.75 C 29.507812 11.050781 29.234375 11.289062 28.984375 11.46875 C 28.734375 11.644531 28.429688 11.796875 28.078125 11.921875 C 27.734375 12.046875 27.285156 12.144531 26.734375 12.21875 C 26.191406 12.289062 25.472656 12.351562 24.578125 12.40625 C 23.535156 12.5 22.863281 12.554688 22.5625 12.578125 C 22.257812 12.609375 21.984375 12.625 21.734375 12.625 Z M 19.5 -25.03125 C 19.5 -26.46875 19.273438 -27.507812 18.828125 -28.15625 C 18.378906 -28.8125 17.628906 -29.140625 16.578125 -29.140625 C 14.785156 -29.140625 13.890625 -27.769531 13.890625 -25.03125 L 13.890625 -13 C 13.890625 -11.550781 14.113281 -10.503906 14.5625 -9.859375 C 15.007812 -9.210938 15.757812 -8.890625 16.8125 -8.890625 C 18.601562 -8.890625 19.5 -10.257812 19.5 -13 Z M 19.5 -25.03125 "/></g></g></g></svg>